<svg viewBox="0 0 500.00003 156.25004" version="1.1" xmlns="http://www.w3.org/2000/svg" xml:space="preserve" aria-label="DAMAGER" role="img">
  <title>DAMAGER</title>
  <g id="layer1" transform="translate(144.96043,-70.570822)">
    <g style="clip-rule:evenodd;fill-rule:evenodd;stroke-linecap:round;stroke-linejoin:round;stroke-miterlimit:1.5" id="g7" transform="matrix(0.26458333,0,0,0.26458333,-144.96037,70.570518)">
      <path d="m 372.39044,308.46478 c 0,-50.4 -41.7,-85.2 -105,-85.2 h -94.8 l -48.9,52.2 h 134.4 c 30.3,0 51.3,18 51.3,42.6 0,32.1 -30.3,54.3 -68.4,54.3 h -72 l 12.9,-73.5 h -62.1 l -22.200003,125.1 H 231.99044 c 76.8,0 140.4,-51 140.4,-115.5 z" id="text1" style="fill:#000000;stroke-width:4.6457" aria-label="D" />
      <g id="text2" style="fill:#000000;stroke-width:4.6457" aria-label="AMaGER">
        <path d="M 593.58282,423.96478 521.34218,283.43236 c -5.11027,-9.75597 -13.24024,-17.42138 -27.64191,-17.42138 -15.09853,0 -26.01592,8.36226 -34.1459,17.42138 L 335.04961,423.96478 h 56.90983 l 91.05572,-103.13454 20.67336,41.11445 c 3.71656,7.43312 8.59455,16.9568 11.84654,22.53164 -7.43312,-0.46457 -18.11823,-0.46457 -27.64192,-0.46457 h -38.79159 l -36.23646,39.95302 z M 718.31991,282.50322 c -3.94884,-10.22054 -11.14968,-16.49224 -23.46078,-16.49224 -12.07882,0 -24.15764,6.96855 -31.12619,21.37022 l -64.11066,136.58358 h 47.15385 l 24.15764,-54.1224 c 7.20084,-16.49224 13.47253,-31.35848 18.11823,-42.74044 3.01971,10.45282 6.50398,21.37022 14.16939,42.74044 l 13.9371,39.25616 c 5.57484,15.33081 13.00796,17.42138 24.62221,17.42138 11.61425,0 19.74422,-2.09057 30.66162,-17.42138 l 27.64191,-39.02388 c 14.40167,-20.20879 22.53165,-32.05533 29.5002,-42.97272 0.23228,12.54339 1.16142,25.08678 2.78742,42.74044 l 5.34255,54.1224 h 47.85072 L 870.2343,287.3812 c -1.62599,-14.40167 -10.91739,-21.37022 -22.99621,-21.37022 -12.77568,0 -22.06708,6.73627 -29.26791,16.49224 l -32.75219,44.13415 c -17.88594,23.92535 -26.01592,35.30732 -32.98447,46.22471 -3.48427,-10.45282 -8.82683,-25.31906 -16.9568,-46.457 z m 431.35339,141.46156 -72.2406,-140.53242 c -5.1103,-9.75597 -13.2402,-17.42138 -27.6419,-17.42138 -15.0985,0 -26.0159,8.36226 -34.1459,17.42138 L 891.14013,423.96478 h 56.90982 l 91.05575,-103.13454 20.6733,41.11445 c 3.7166,7.43312 8.5946,16.9568 11.8466,22.53164 -7.4331,-0.46457 -18.1183,-0.46457 -27.6419,-0.46457 h -38.7916 l -36.2365,39.95302 z" id="path20" />
        <path d="m 1220.9836,361.48012 h 80.6029 l -3.9489,22.53164 h -59.0003 c -23.9254,0 -39.7208,-12.54339 -39.7208,-31.82304 0,-24.8545 24.3899,-43.20501 52.961,-43.20501 h 80.1383 l 38.3271,-40.41759 h -111.2646 c -59.4649,0 -108.2448,35.77189 -108.2448,86.87459 0,39.25616 32.2876,68.52407 80.8352,68.52407 h 106.6188 l 17.1891,-97.09513 h -99.418 z" id="path21" />
        <path d="m 1421.2135,384.01176 3.7166,-21.13793 h 95.7014 l 33.449,-35.30732 h -122.8787 l 3.2519,-18.5828 h 100.5795 l 38.327,-40.41759 h -179.7886 l -27.6419,155.39866 h 149.5915 l 38.0948,-39.95302 z m 338.6715,9.75597 c -8.5946,-10.91739 -13.4726,-16.49223 -17.886,-20.44108 29.9648,-5.80712 50.1736,-29.50019 50.1736,-57.60668 0,-37.1656 -38.5593,-47.15385 -71.0792,-47.15385 h -99.8826 l -38.5593,40.41759 h 135.1899 c 14.8662,0 23.693,5.11027 23.693,15.33081 0,12.54339 -13.9371,20.20879 -29.9647,20.20879 h -135.1899 l -13.9371,79.44147 h 48.083 l 7.2008,-41.11444 h 73.8667 l 27.4096,41.11444 h 64.3429 z" id="path22" />
      </g>
      <path id="SWOOSH" d="M 98.643,426.519 H 276.511 C 775.133,252.918 1249.056,197.733 1792.171,173.942 1118.155,179.399 576.043,255.993 98.643,426.519 Z" style="fill:#000000;stroke:#ffffff;stroke-width:12.5px" />
      <path d="m 1363.573,178.789 c -0.142,-0.136 -1.135,-1.086 -1.803,-1.686 -0.124,-0.111 -3.72,-3.496 -3.803,-3.571 -1.58,-1.43 -1.553,-1.445 -1.691,-1.568 -0.713,-0.634 -1.874,-1.713 -2.035,-1.863 -0.323,-0.3 -3.705,-3.444 -4.04,-3.742 -1.669,-1.486 -2.206,-2.29 -2.81,-2.327 -0.108,-0.006 -7.719,0.53 -8.487,0.609 -0.054,0.006 -0.532,0.055 -0.493,0.369 0.019,0.157 0.062,0.146 1.183,1.715 0.087,0.122 4.217,5.985 4.415,6.286 1.157,1.766 1.709,2.233 1.157,3.573 -0.308,0.749 -0.313,0.748 -4.385,9.236 -0.634,1.323 -0.947,1.298 -3.616,1.556 -0.433,0.042 -4.11,0.396 -5.419,0.511 -0.709,0.062 -0.832,-0.175 -1.763,-0.899 -0.194,-0.151 -2.309,-1.797 -2.426,-1.889 -1.866,-1.475 -2.056,-1.647 -2.55,-1.718 -0.319,-0.046 -4.545,0.27 -4.68,0.303 -0.382,0.094 -0.426,0.093 -3.39,2.893 -0.972,0.918 -0.973,0.911 -1.949,1.822 -1.969,1.837 -2.093,1.8 -2.144,2.143 -0.09,0.603 1.704,1.655 4.431,3.29 1.583,0.949 1.576,1.063 3.605,1.191 1.319,0.084 1.306,0.141 2.627,0.182 0.053,0.002 0.486,6.302 0.454,6.309 -0.304,0.066 -3.065,0.67 -3.785,0.874 -0.767,0.217 -0.825,0.244 -2.745,1.846 -3.39,2.828 -4.032,3.249 -3.041,3.931 6.844,4.708 7.252,5.062 7.595,5.193 0.312,0.12 0.403,0.154 4.415,-0.171 0.906,-0.073 0.975,-0.153 1.659,-0.852 3.484,-3.561 4.161,-4.474 4.627,-4.669 0.242,-0.101 1.107,-0.102 7.289,-0.38 1.761,-0.079 1.889,0.282 2.884,1.816 5.118,7.89 5.66,8.16 5.463,9.267 -0.254,1.426 -4.785,9.563 -5.339,10.799 -0.017,0.037 -0.187,0.416 0.229,0.449 0.168,0.013 8.089,-0.508 8.475,-0.546 0.878,-0.087 0.898,-0.545 1.966,-1.783 0.33,-0.383 1.788,-2.228 2.194,-2.703 0.793,-0.929 4.41,-5.432 4.57,-5.623 1.687,-2.008 1.617,-2.038 3.293,-4.054 0.402,-0.484 3.858,-4.798 4.473,-5.541 2.608,-3.154 2.96,-4.03 3.894,-4.305 1.553,-0.457 29.4,-5.522 37.144,-7.59 8.144,-2.175 12.904,-4.827 14.093,-5.34 0.088,-0.038 0.734,-0.317 1.081,-0.51 0.041,-0.023 0.393,-0.219 0.065,-0.48 -0.05,-0.04 -0.442,-0.161 -0.481,-0.173 -1.802,-0.558 -4.214,-1.398 -7.511,-2.208 -4.47,-1.099 -8.607,-1.477 -9.128,-1.541 -5.51,-0.673 -36.07,-2.015 -37.103,-2.41 -0.662,-0.253 -2.195,-1.937 -4.315,-3.842 -1.198,-1.076 -1.155,-1.1 -2.345,-2.177 z" style="fill:#000000" id="path2" />
    </g>
  </g>
</svg>
