<svg viewBox="0 0 1890 591" version="1.1" xmlns="http://www.w3.org/2000/svg" xml:space="preserve" style="fill-rule:evenodd;clip-rule:evenodd;stroke-linecap:round;stroke-linejoin:round;stroke-miterlimit:1.5;" aria-label="DAMAGER" role="img">
  <title>DAMAGER</title>
  <g id="DAMAGER" transform="matrix(4.645696,0,0,4.645696,-5342.409246,-4012.326369)">
    <text x="1166.908px" y="954.925px" style="font-family:'EthnocentricRg-Italic','Ethnocentric';font-style:italic;font-size:64.576px;fill:#000000;">D</text>
    <text x="1221.54px" y="954.925px" style="font-family:'EthnocentricRg-Italic','Ethnocentric';font-style:italic;font-size:50px;fill:#000000;">AMa<tspan x="1392.84px" y="954.925px">G</tspan>ER</text>
  </g>
  <path id="SWOOSH" d="M98.643,426.519l177.868,0c498.622,-173.601 972.545,-228.786 1515.66,-252.577c-674.016,5.457 -1216.128,82.051 -1693.528,252.577Z" style="fill:#000000;"/>
  <path d="M1363.573,178.789c-0.142,-0.136 -1.135,-1.086 -1.803,-1.686c-0.124,-0.111 -3.72,-3.496 -3.803,-3.571c-1.58,-1.43 -1.553,-1.445 -1.691,-1.568c-0.713,-0.634 -1.874,-1.713 -2.035,-1.863c-0.323,-0.3 -3.705,-3.444 -4.04,-3.742c-1.669,-1.486 -2.206,-2.29 -2.81,-2.327c-0.108,-0.006 -7.719,0.53 -8.487,0.609c-0.054,0.006 -0.532,0.055 -0.493,0.369c0.019,0.157 0.062,0.146 1.183,1.715c0.087,0.122 4.217,5.985 4.415,6.286c1.157,1.766 1.709,2.233 1.157,3.573c-0.308,0.749 -0.313,0.748 -4.385,9.236c-0.634,1.323 -0.947,1.298 -3.616,1.556c-0.433,0.042 -4.11,0.396 -5.419,0.511c-0.709,0.062 -0.832,-0.175 -1.763,-0.899c-0.194,-0.151 -2.309,-1.797 -2.426,-1.889c-1.866,-1.475 -2.056,-1.647 -2.55,-1.718c-0.319,-0.046 -4.545,0.27 -4.68,0.303c-0.382,0.094 -0.426,0.093 -3.39,2.893c-0.972,0.918 -0.973,0.911 -1.949,1.822c-1.969,1.837 -2.093,1.8 -2.144,2.143c-0.09,0.603 1.704,1.655 4.431,3.29c1.583,0.949 1.576,1.063 3.605,1.191c1.319,0.084 1.306,0.141 2.627,0.182c0.053,0.002 0.486,6.302 0.454,6.309c-0.304,0.066 -3.065,0.67 -3.785,0.874c-0.767,0.217 -0.825,0.244 -2.745,1.846c-3.39,2.828 -4.032,3.249 -3.041,3.931c6.844,4.708 7.252,5.062 7.595,5.193c0.312,0.12 0.403,0.154 4.415,-0.171c0.906,-0.073 0.975,-0.153 1.659,-0.852c3.484,-3.561 4.161,-4.474 4.627,-4.669c0.242,-0.101 1.107,-0.102 7.289,-0.38c1.761,-0.079 1.889,0.282 2.884,1.816c5.118,7.89 5.66,8.16 5.463,9.267c-0.254,1.426 -4.785,9.563 -5.339,10.799c-0.017,0.037 -0.187,0.416 0.229,0.449c0.168,0.013 8.089,-0.508 8.475,-0.546c0.878,-0.087 0.898,-0.545 1.966,-1.783c0.33,-0.383 1.788,-2.228 2.194,-2.703c0.793,-0.929 4.41,-5.432 4.57,-5.623c1.687,-2.008 1.617,-2.038 3.293,-4.054c0.402,-0.484 3.858,-4.798 4.473,-5.541c2.608,-3.154 2.96,-4.03 3.894,-4.305c1.553,-0.457 29.4,-5.522 37.144,-7.59c8.144,-2.175 12.904,-4.827 14.093,-5.34c0.088,-0.038 0.734,-0.317 1.081,-0.51c0.041,-0.023 0.393,-0.219 0.065,-0.48c-0.05,-0.04 -0.442,-0.161 -0.481,-0.173c-1.802,-0.558 -4.214,-1.398 -7.511,-2.208c-4.47,-1.099 -8.607,-1.477 -9.128,-1.541c-5.51,-0.673 -36.07,-2.015 -37.103,-2.41c-0.662,-0.253 -2.195,-1.937 -4.315,-3.842c-1.198,-1.076 -1.155,-1.1 -2.345,-2.177Z" style="fill:#000000;"/>
</svg>
