<?xml version="1.0" encoding="UTF-8" standalone="no"?>
<!DOCTYPE svg PUBLIC "-//W3C//DTD SVG 1.1//EN" "http://www.w3.org/Graphics/SVG/1.1/DTD/svg11.dtd">
<svg width="100%" height="100%" viewBox="0 0 3508 4961" version="1.1" xmlns="http://www.w3.org/2000/svg" xmlns:xlink="http://www.w3.org/1999/xlink" xml:space="preserve" xmlns:serif="http://www.serif.com/" style="fill-rule:evenodd;clip-rule:evenodd;stroke-linejoin:round;stroke-miterlimit:2;">
    <g transform="matrix(-0,10.091203,7.772052,0,-1039.856035,-5073.945143)">
        <path d="M766.59,267.564C767.15,266.765 771.056,261.185 773.699,257.645C774.189,256.988 788.364,237.079 788.691,236.636C794.935,228.203 794.816,228.132 795.365,227.404C798.186,223.661 802.765,217.31 803.401,216.427C804.673,214.662 818.015,196.154 819.342,194.39C825.945,185.614 827.974,181.007 830.51,180.577C830.963,180.5 863.222,180.536 866.485,180.677C866.713,180.686 868.743,180.774 868.672,182.508C868.636,183.372 868.455,183.331 864.187,192.349C863.855,193.052 848.157,226.732 847.413,228.46C843.052,238.573 840.862,241.338 843.582,248.47C845.102,252.454 845.124,252.444 864.789,297.377C867.854,304.38 869.163,304.126 880.5,304.517C882.34,304.58 897.951,305.117 903.507,305.247C906.517,305.317 906.966,303.971 910.679,299.65C911.453,298.748 919.89,288.93 920.357,288.378C927.794,279.586 928.545,278.573 930.607,277.995C931.939,277.621 949.857,277.739 950.436,277.869C952.077,278.235 952.26,278.218 965.586,292.418C969.954,297.073 969.957,297.037 974.341,301.651C983.186,310.96 983.698,310.712 984.014,312.569C984.57,315.835 977.313,322.281 966.291,332.276C959.892,338.079 959.956,338.697 951.435,340.175C945.895,341.135 945.97,341.447 940.408,342.176C940.185,342.205 940.211,376.872 940.348,376.898C941.65,377.146 953.473,379.398 956.57,380.239C959.867,381.135 960.123,381.263 968.691,389.3C983.82,403.491 986.65,405.557 982.674,409.666C955.191,438.061 953.572,440.151 952.165,441.002C950.886,441.776 950.512,442.001 933.494,441.749C929.653,441.693 929.335,441.281 926.246,437.715C910.504,419.54 907.383,414.801 905.357,413.911C904.305,413.449 900.657,413.777 874.503,414.611C867.052,414.849 866.617,416.876 862.871,425.655C843.602,470.819 841.396,472.502 842.554,478.49C844.045,486.201 865.546,529.037 868.244,535.595C868.326,535.793 869.154,537.804 867.411,538.14C866.706,538.275 833.145,538.445 831.503,538.382C827.774,538.241 827.555,535.738 822.685,529.369C821.18,527.4 814.488,517.852 812.636,515.402C809.018,510.615 792.441,487.338 791.709,486.353C784.005,476 784.288,475.811 776.628,465.41C774.79,462.915 758.946,440.606 756.134,436.769C744.207,420.493 742.468,415.829 738.447,414.679C731.763,412.766 612.82,395.656 579.551,387.284C544.561,378.479 523.706,365.774 518.542,363.416C518.158,363.241 515.352,361.96 513.835,361.035C513.654,360.925 512.111,359.984 513.421,358.43C513.62,358.194 515.237,357.38 515.4,357.298C522.835,353.556 532.762,348.037 546.432,342.341C564.964,334.62 582.298,330.969 584.481,330.421C607.525,324.635 736.027,305.628 740.267,303.07C742.983,301.432 748.956,291.623 757.337,280.382C762.073,274.03 761.884,273.919 766.59,267.564Z"/>
    </g>
</svg>
