<?xml version="1.0" encoding="UTF-8" standalone="no"?>
<!-- Created with Inkscape (http://www.inkscape.org/) -->

<svg
   version="1.1"
   id="svg1"
   width="54"
   height="53.999985"
   viewBox="0 0 54 53.999985"
   xmlns="http://www.w3.org/2000/svg"
   xmlns:svg="http://www.w3.org/2000/svg">
  <defs
     id="defs1">
    <clipPath
       clipPathUnits="userSpaceOnUse"
       id="clipPath3175">
      <path
         d="M 1.1614056e-5,1.1806338e-5 H 499.15582 V 499.15582 H 1.1614056e-5 Z"
         clip-rule="evenodd"
         id="path3175" />
    </clipPath>
    <clipPath
       clipPathUnits="userSpaceOnUse"
       id="clipPath3176">
      <path
         d="m 397.11998,195.84003 h 54.72 v 54.4 h -54.72 z"
         id="path3176" />
    </clipPath>
  </defs>
  <g
     id="g1"
     transform="translate(-732.20422,-204.79247)">

    <g
       id="g3175"
       transform="translate(334.88998,8.9374091)">
      <g
         opacity="0.36"
         id="g3179">
        <g
           clip-path="url(#clipPath3176)"
           id="g3178">
          <path
             d="m 251,501.89999 c -67,0 -130.10001,-26.1 -177.5,-73.5 C 26.100006,381 0,318 0,251 0,184 26.1,120.9 73.5,73.5 120.9,26.099998 183.89999,0 251,0 c 67.10001,0 130,26.1 177.39999,73.5 47.4,47.4 73.5,110.39999 73.5,177.5 0,67.10001 -26.1,130 -73.5,177.39999 C 381,475.79999 318,501.89999 251,501.89999 Z M 251,15 C 188,15 128.7,39.5 84.100006,84.099998 39.5,128.7 15,187.89999 15,251 15,314.10001 39.5,373.29999 84.099998,417.89999 128.7,462.5 187.89999,487 251,487 314.10001,487 373.29999,462.5 417.89999,417.89999 462.5,373.29999 487,314.09998 487,251 487,187.90002 462.5,128.7 417.89999,84.100006 373.20001,39.5 314,15 251,15 Z"
             style="fill:#9fa191;fill-opacity:1;fill-rule:nonzero;stroke:none"
             transform="matrix(0.10818265,0,0,0.10818265,397.31424,195.85505)"
             clip-path="url(#clipPath3175)"
             id="path3177" />
          <path
             d="m 246,470.60001 h -0.60001 c -2.19999,-0.10001 -3.89999,-1.9 -3.8,-4 0.10001,-2.10001 1.8,-3.79999 3.89999,-3.79999 0,0 0.10001,0 0.10001,0 h 0.5 c 2.2,0.1 3.89999,1.89999 3.8,4 0,2.09997 -1.69999,3.79999 -3.89999,3.79999 z m 19.79999,-0.5 c -2.10001,0 -3.79999,-1.60001 -3.9,-3.70002 -0.1,-2.20001 1.5,-4 3.70002,-4.20001 H 266 c 2.20001,-0.20001 4.10001,1.5 4.20001,3.60001 0.20001,2.20001 -1.5,4.1 -3.6,4.20001 h -0.5 c -0.20002,0.10001 -0.30002,0.10001 -0.30002,0.10001 z m -39.9,-0.9 c -0.1,0 -0.3,0 -0.5,0 l -0.5,-0.1 C 222.7,468.80002 221.2,466.89999 221.5,464.70001 221.8,462.5 223.7,461 225.89999,461.30002 l 0.5,0.1 c 2.2,0.20002 3.7,2.20002 3.5,4.4 -0.39999,1.89999 -2.09999,3.39999 -4,3.39999 z m 59.9,-1.40002 c -1.9,0 -3.60001,-1.4 -3.9,-3.29999 C 281.5,462.39999 283,460.29999 285.19998,460 l 0.5,-0.10001 c 2.10001,-0.29998 4.20001,1.10001 4.5,3.29999 0.29999,2.19998 -1.1,4.20001 -3.29999,4.5 l -0.5,0.10001 c -0.1,0 -0.29998,0 -0.6,0 z m -79.9,-1.9 c -0.3,0 -0.5,0 -0.8,-0.1 l -0.5,-0.10001 c -2.10001,-0.5 -3.5,-2.6 -3,-4.70001 0.5,-2.10001 2.60001,-3.5 4.7,-3 l 0.5,0.10001 c 2.1,0.5 3.5,2.5 3,4.70001 -0.4,1.90002 -2.09999,3.1 -3.9,3.1 z m 99.70002,-2.19998 c -1.79999,0 -3.4,-1.20001 -3.79999,-3 -0.5,-2.1 0.70001,-4.29999 2.89999,-4.79999 l 0.4,-0.1 c 2.1,-0.60001 4.29998,0.70001 4.79998,2.79999 0.60001,2.1 -0.70001,4.29998 -2.79998,4.79998 l -0.5,0.10001 c -0.30002,0.10001 -0.70002,0.20001 -1,0.20001 z m -119.20002,-2.90002 c -0.39999,0 -0.8,-0.10001 -1.19999,-0.20001 l -0.4,-0.10001 c -2.1,-0.70001 -3.3,-2.89999 -2.6,-5 0.69999,-2.10001 2.8,-3.20001 4.89999,-2.60001 l 0.5,0.10001 c 2.10001,0.60001 3.2,2.89999 2.60001,4.89999 -0.59999,1.80005 -2.2,2.90003 -3.80001,2.90003 z m 138.5,-3.19998 c -1.6,0 -3.1,-1 -3.70001,-2.60001 -0.70001,-2 0.29999,-4.29999 2.4,-5 l 0.39999,-0.20001 c 2,-0.70001 4.29999,0.29999 5.10001,2.29999 0.70001,2 -0.29999,4.29998 -2.29999,5.1 l -0.5,0.20001 c -0.5,0.20002 -0.9,0.20002 -1.4,0.20002 z m -157.5,-3.70002 c -0.5,0 -1,-0.1 -1.5,-0.29998 l -0.5,-0.20002 c -2,-0.89999 -2.89999,-3.20001 -2.1,-5.20001 0.89999,-2 3.19999,-2.89999 5.19999,-2.1 l 0.4,0.20001 c 2,0.79999 3,3.1 2.1,5.20001 -0.59999,1.39999 -2.09999,2.39999 -3.59999,2.39999 z m 176.20002,-4.1 c -1.5,0 -2.9,-0.79999 -3.5,-2.20001 -0.9,-2 -0.10001,-4.29999 1.79998,-5.29999 l 0.5,-0.20001 c 2,-0.9 4.29999,-0.10001 5.29999,1.89999 0.9,2 0.10001,4.29999 -1.89999,5.20001 l -0.4,0.20001 c -0.69998,0.30002 -1.29998,0.4 -1.79998,0.4 z m -194.5,-4.69998 c -0.60001,0 -1.30001,-0.20002 -1.9,-0.5 l -0.39999,-0.20002 c -1.9,-1 -2.60001,-3.39999 -1.60001,-5.29998 1,-1.9 3.4,-2.60001 5.3,-1.60001 l 0.4,0.20001 c 1.89999,1 2.6,3.4 1.6,5.29999 -0.60002,1.39999 -2.00001,2.10001 -3.4,2.10001 z m 212.29998,-4.80002 c -1.29998,0 -2.6,-0.70001 -3.39999,-1.9 C 356.89999,436.5 357.5,434.10001 359.29999,433 l 0.39999,-0.29999 c 1.9,-1.1 4.29999,-0.5 5.4,1.4 1.1,1.89999 0.5,4.29998 -1.4,5.39999 l -0.39999,0.20001 c -0.5,0.4 -1.19998,0.59998 -1.9,0.59998 z M 131.7,434.70001 c -0.7,0 -1.5,-0.20001 -2.2,-0.70001 l -0.39999,-0.29999 C 127.3,432.5 126.8,430.10001 128,428.20001 c 1.2,-1.79999 3.60001,-2.29999 5.5,-1.1 l 0.39999,0.29998 C 135.7,428.60001 136.2,431 135,432.89999 c -0.7,1.20002 -2,1.80002 -3.3,1.80002 z m 246.59999,-5.6 c -1.20001,0 -2.4,-0.60001 -3.20001,-1.60001 -1.29999,-1.70001 -0.9,-4.20001 0.79998,-5.5 l 0.4,-0.29999 c 1.79999,-1.29999 4.20001,-0.89999 5.5,0.79999 1.29999,1.79999 0.89999,4.20001 -0.79999,5.5 l -0.39999,0.29999 c -0.69999,0.6 -1.49997,0.80002 -2.29999,0.80002 z M 115.4,422.79999 c -0.9,0 -1.8,-0.29999 -2.5,-0.9 l -0.4,-0.29998 c -1.7,-1.4 -2,-3.79999 -0.6,-5.5 1.4,-1.70002 3.80001,-2 5.5,-0.60001 l 0.4,0.29999 c 1.7,1.39999 1.90001,3.89999 0.6,5.5 -0.7,1 -1.8,1.5 -3,1.5 z m 278.6,-6.4 c -1.10001,0 -2.20001,-0.39999 -2.89999,-1.29998 -1.4,-1.60001 -1.29999,-4.10001 0.29998,-5.5 l 0.4,-0.29999 c 1.6,-1.5 4.1,-1.29999 5.6,0.29999 1.5,1.6 1.29999,4.1 -0.29998,5.6 L 396.80002,415.5 c -0.90003,0.60001 -1.90003,0.89999 -2.80002,0.89999 z m -293.7,-7.1 c -0.999997,0 -1.999997,-0.4 -2.699994,-1.10001 l -0.400001,-0.39999 c -1.599999,-1.5 -1.599999,-4 0,-5.60001 1.5,-1.6 4.000005,-1.6 5.599995,0 l 0.30001,0.29999 c 1.6,1.5 1.6,4 0.1,5.60001 C 102.4,409 101.3,409.29999 100.3,409.29999 Z m 308.2,-7 c -1,0 -1.89999,-0.29999 -2.70001,-1.10001 -1.60001,-1.5 -1.70001,-4 -0.20001,-5.6 l 0.29998,-0.4 c 1.5,-1.6 4,-1.70001 5.60001,-0.20001 1.60001,1.5 1.70001,4 0.20001,5.60001 l -0.29999,0.29998 c -0.79998,1.00003 -1.89999,1.40003 -2.89999,1.40003 z m -322,-7.69998 c -1.099998,0 -2.199997,-0.5 -3,-1.4 l -0.300003,-0.39999 c -1.400002,-1.70001 -1.199997,-4.10001 0.5,-5.60001 1.699997,-1.39999 4.099998,-1.20001 5.599998,0.5 l 0.300003,0.4 c 1.400002,1.70001 1.199997,4.1 -0.5,5.6 -0.799995,0.59998 -1.699996,0.9 -2.599998,0.9 z m 335.10001,-7.70002 c -0.79999,0 -1.70002,-0.29998 -2.4,-0.79998 -1.70001,-1.29999 -2.1,-3.79999 -0.70001,-5.5 l 0.29999,-0.4 c 1.29999,-1.70001 3.79999,-2 5.5,-0.70001 1.70001,1.29999 2,3.79999 0.70001,5.5 l -0.29999,0.39999 c -0.70001,1 -1.90002,1.5 -3.1,1.5 z M 74.199997,378.60001 C 73,378.60001 71.699997,378 71,376.89999 L 70.699997,376.5 c -1.199997,-1.79999 -0.800003,-4.20001 1,-5.5 1.800003,-1.20001 4.199997,-0.79999 5.5,1 L 77.5,372.39999 c 1.199997,1.79999 0.800003,4.20002 -1,5.5 -0.800003,0.4 -1.599998,0.70002 -2.300003,0.70002 z m 359.000013,-8.20002 c -0.70001,0 -1.39999,-0.20001 -2.1,-0.6 -1.79999,-1.20001 -2.4,-3.60001 -1.20002,-5.4 L 430.19998,364 c 1.20001,-1.79999 3.60001,-2.39999 5.4,-1.20001 1.79998,1.20001 2.39999,3.6 1.20001,5.39999 l -0.29999,0.4 c -0.70001,1.10003 -2,1.80001 -3.29999,1.80001 z M 63.299999,361.5 c -1.400001,0 -2.700001,-0.70001 -3.400001,-2 l -0.200001,-0.39999 c -1.099999,-1.9 -0.400002,-4.29999 1.5,-5.4 1.900001,-1.1 4.300003,-0.39999 5.400001,1.5 l 0.199997,0.4 c 1.099999,1.89999 0.400002,4.29998 -1.5,5.39999 -0.599998,0.29999 -1.299995,0.5 -1.999996,0.5 z m 379.999991,-8.70001 c -0.60001,0 -1.20001,-0.10001 -1.79999,-0.4 -1.89999,-1 -2.70001,-3.39999 -1.70001,-5.29998 l 0.20001,-0.4 C 441,344.80002 443.39999,344 445.29999,345 447.19998,346 448,348.39999 447,350.29999 l -0.20001,0.39999 c -0.69998,1.30002 -2.09998,2.10001 -3.5,2.10001 z M 54.200001,343.5 c -1.5,0 -2.900002,-0.89999 -3.599999,-2.29999 l -0.2,-0.39999 c -0.900002,-2 0,-4.29999 2,-5.20001 2,-0.9 4.299999,0 5.2,2 L 57.800003,338 c 0.900002,2 0,4.29999 -2,5.20001 -0.500004,0.19998 -1.100002,0.29999 -1.600002,0.29999 z m 397.400009,-9.10001 c -0.5,0 -1,-0.1 -1.4,-0.29998 -2,-0.79999 -3,-3.10001 -2.20001,-5.10001 l 0.20001,-0.5 c 0.79999,-2 3.10001,-3 5.10001,-2.20001 2,0.79999 3,3.1 2.20001,5.1 l -0.20001,0.5 c -0.70001,1.5 -2.10001,2.5 -3.70001,2.5 z M 46.700001,324.70001 C 45.100002,324.70001 43.5,323.70001 43,322 l -0.200001,-0.5 c -0.700001,-2.10001 0.400002,-4.29999 2.5,-5 2.099999,-0.70001 4.299999,0.39999 5,2.5 L 50.5,319.5 c 0.700001,2.10001 -0.400002,4.29999 -2.400002,5 -0.5,0.10001 -0.899997,0.20001 -1.399997,0.20001 z m 411.500009,-9.40002 c -0.39999,0 -0.70001,-0.10001 -1.1,-0.20001 -2.10001,-0.60001 -3.29999,-2.79999 -2.70002,-4.9 l 0.10001,-0.5 c 0.60001,-2.1 2.79999,-3.29999 4.89999,-2.70001 2.10001,0.60001 3.29999,2.79999 2.70002,4.89999 l -0.10001,0.5 c -0.60001,1.70005 -2.10001,2.90003 -3.79999,2.90003 z M 41.099998,305.20001 c -1.799999,0 -3.400001,-1.20001 -3.799999,-3 l -0.1,-0.5 C 36.700001,299.60001 38,297.5 40.100002,297 c 2.099999,-0.5 4.200001,0.79999 4.700001,2.89999 l 0.1,0.5 c 0.5,2.10001 -0.8,4.20002 -2.900002,4.70002 -0.299999,0.1 -0.599998,0.1 -0.900002,0.1 z m 421.799992,-9.6 c -0.20001,0 -0.5,0 -0.79998,-0.10001 C 460,295.10001 458.60001,293 459,290.89999 l 0.10001,-0.5 c 0.39999,-2.1 2.5,-3.5 4.6,-3.1 2.10001,0.39999 3.5,2.5 3.10001,4.6 l -0.10001,0.5 c -0.30002,1.9 -2,3.20002 -3.80002,3.20002 z M 37.299999,285.39999 C 35.399998,285.39999 33.700001,284 33.399998,282 l -0.1,-0.5 C 33,279.29999 34.5,277.39999 36.700001,277.10001 c 2.200001,-0.29999 4.099998,1.20001 4.400001,3.39999 l 0.1,0.5 C 41.5,283.20001 40,285.10001 37.900002,285.5 37.700001,285.39999 37.5,285.39999 37.299999,285.39999 Z m 428.400011,-9.79998 c -0.1,0 -0.29999,0 -0.39999,0 -2.20001,-0.20002 -3.79999,-2.10001 -3.5,-4.29999 v -0.5 c 0.20001,-2.20001 2.1,-3.79999 4.29999,-3.5 2.20001,0.20001 3.79998,2.1 3.5,4.29999 v 0.5 c -0.10001,2 -1.9,3.5 -3.9,3.5 z M 35.5,265.29999 c -2.099998,0 -3.799999,-1.60001 -3.9,-3.79999 V 261 c -0.1,-2.20001 1.600001,-4 3.699999,-4.10001 2.200001,-0.1 4,1.60001 4.099999,3.70002 v 0.5 c 0.1,2.20001 -1.599999,4 -3.700001,4.1 -0.1,0.1 -0.199997,0.1 -0.199997,0.1 z m 431.20001,-10.4 c -2.20001,0 -4.1,-1.3 -4.1,-3.5 V 251 c 0,0 0,-0.10001 0,-0.10001 v -0.5 c 0,-2.19999 1.79998,-3.89999 4,-3.89999 2.20001,0 4,1.8 4,3.89999 v 0.4 c 0,0 0,0.1 0,0.1 v 0.5 c 0,2.20002 -1.70002,3.5 -3.9,3.5 z M 35.400002,245 c -0.1,0 -0.1,0 -0.200001,0 -2.200001,-0.10001 -3.9,-1.89999 -3.799999,-4.10001 v -0.5 c 0.1,-2.19999 2,-3.8 4.099998,-3.69999 2.200001,0.1 3.900002,1.89999 3.700001,4.1 v 0.5 c 0.1,2.09999 -1.700001,3.7 -3.799999,3.7 z M 465.79999,234.7 c -2,0 -3.70001,-1.5 -3.9,-3.60001 v -0.5 c -0.20001,-2.2 1.4,-4.10001 3.5,-4.3 2.20002,-0.2 4.10001,1.39999 4.29999,3.5 v 0.5 c 0.20001,2.19999 -1.39999,4.1 -3.6,4.3 C 466,234.7 465.89999,234.7 465.79999,234.7 Z M 37.299999,224.89999 c -0.200001,0 -0.400001,0 -0.5,0 -2.200001,-0.3 -3.700001,-2.3 -3.400001,-4.39999 l 0.1,-0.5 c 0.299999,-2.2 2.299999,-3.7 4.5,-3.3 2.200001,0.3 3.700001,2.3 3.299999,4.5 l -0.1,0.5 c -0.299995,1.8 -1.999996,3.19999 -3.899998,3.19999 z M 463,214.7 c -1.89999,0 -3.5,-1.30001 -3.89999,-3.2 L 459,211 c -0.39999,-2.10001 1,-4.2 3.10001,-4.60001 2.1,-0.39999 4.20001,1 4.6,3.10001 l 0.10001,0.5 c 0.39999,2.10001 -1,4.2 -3.10001,4.60001 -0.30002,0.1 -0.5,0.1 -0.70001,0.1 z M 41,205 c -0.299999,0 -0.599998,0 -0.900002,-0.10001 -2.099998,-0.5 -3.400001,-2.6 -2.900001,-4.69999 l 0.1,-0.5 c 0.5,-2.10001 2.599999,-3.4 4.700001,-2.9 2.099999,0.5 3.400002,2.60001 2.900002,4.7 l -0.1,0.5 c -0.399997,1.8 -2,3 -3.8,3 z M 458.29999,195 C 456.59998,195 455,193.89999 454.5,192.10001 l -0.10001,-0.5 c -0.6,-2.10001 0.60001,-4.30001 2.70002,-4.9 2.1,-0.6 4.29998,0.60001 4.89999,2.7 l 0.10001,0.5 c 0.6,2.10001 -0.60001,4.3 -2.70002,4.89999 -0.39999,0.2 -0.79998,0.2 -1.1,0.2 z M 46.599998,185.60001 c -0.400001,0 -0.799999,-0.10001 -1.299999,-0.2 -2.099998,-0.7 -3.200001,-2.89999 -2.5,-5 L 43,180 c 0.700001,-2.10001 3,-3.2 5,-2.5 2.099998,0.7 3.200001,2.89999 2.5,5 l -0.200001,0.5 c -0.5,1.60001 -2.099998,2.60001 -3.700001,2.60001 z m 405.199992,-9.70002 c -1.60001,0 -3.10001,-1 -3.70001,-2.5 L 447.89996,173 c -0.79998,-2 0.20002,-4.3 2.20002,-5.10001 2,-0.8 4.29998,0.2 5.1,2.2 l 0.20001,0.5 c 0.79999,2 -0.20001,4.3 -2.20001,5.10001 -0.49997,0.1 -0.89999,0.19999 -1.39999,0.19999 z M 54,166.8 c -0.5,0 -1.099998,-0.1 -1.599998,-0.3 -2,-0.89999 -2.900002,-3.2 -2,-5.2 l 0.2,-0.5 c 0.900002,-2 3.200001,-2.89999 5.200001,-2 2,0.9 2.900002,3.2 2,5.2 l -0.200001,0.39999 C 56.900002,165.89999 55.5,166.8 54,166.8 Z m 389.5,-9.40001 c -1.39999,0 -2.79999,-0.8 -3.5,-2.19999 l -0.20001,-0.4 c -1,-1.89999 -0.20001,-4.3 1.70001,-5.3 1.89999,-1 4.29999,-0.2 5.29999,1.7 L 447,151.59999 c 1,1.89999 0.20001,4.3 -1.70001,5.3 -0.59998,0.40001 -1.19998,0.5 -1.79999,0.5 z M 63.099998,148.7 c -0.7,0 -1.299999,-0.2 -1.900001,-0.5 -1.900002,-1.10001 -2.599999,-3.5 -1.5,-5.4 l 0.200001,-0.39999 c 1.099998,-1.9 3.5,-2.5 5.399997,-1.5 1.900002,1.1 2.5,3.5 1.5,5.39999 l -0.199997,0.4 c -0.799995,1.3 -2.099998,2 -3.5,2 z M 433.5,139.8 c -1.29999,0 -2.60001,-0.69999 -3.29999,-1.8 L 430,137.60001 c -1.20001,-1.80001 -0.60001,-4.30001 1.20001,-5.4 1.79999,-1.2 4.29999,-0.6 5.4,1.2 l 0.29998,0.39999 c 1.20002,1.80001 0.60001,4.30001 -1.20001,5.4 -0.79999,0.5 -1.49997,0.6 -2.19998,0.6 z M 73.900002,131.60001 c -0.800004,0 -1.599999,-0.2 -2.199997,-0.7 -1.800003,-1.2 -2.199997,-3.7 -1,-5.5 L 71,125 c 1.199997,-1.8 3.699997,-2.2 5.5,-1 1.800003,1.3 2.199997,3.7 1,5.5 l -0.300003,0.39999 C 76.400002,131 75.099998,131.60001 73.900002,131.60001 Z M 421.89999,123.3 c -1.20001,0 -2.39999,-0.5 -3.1,-1.5 L 418.5,121.4 c -1.29999,-1.69999 -1,-4.19999 0.70001,-5.5 1.70001,-1.3 4.20001,-1 5.5,0.7 L 425,117 c 1.29999,1.7 1,4.2 -0.70001,5.5 -0.69998,0.5 -1.5,0.8 -2.4,0.8 z M 86.199997,115.6 c -0.900002,0 -1.800003,-0.3 -2.5,-0.9 -1.699997,-1.4 -1.900002,-3.9 -0.5,-5.5 L 83.5,108.8 c 1.400002,-1.7 3.900002,-1.80001 5.599998,-0.40001 1.699997,1.40001 1.800004,3.90001 0.400002,5.6 l -0.300003,0.4 C 88.5,115.1 87.300003,115.6 86.199997,115.6 Z m 322.599993,-7.7 c -1.10001,0 -2.10001,-0.4 -2.9,-1.3 l -0.29998,-0.3 c -1.5,-1.6 -1.4,-4.1 0.20001,-5.6 1.6,-1.500003 4.1,-1.400005 5.6,0.19999 l 0.4,0.40001 c 1.5,1.59999 1.39999,4.09999 -0.20001,5.59999 C 410.79999,107.5 409.79999,107.9 408.79999,107.9 Z M 100,100.8 c -1,0 -2,-0.4 -2.800003,-1.199994 -1.5,-1.599998 -1.5,-4 0.1,-5.599998 l 0.400002,-0.400002 c 1.599998,-1.5 4.100001,-1.5 5.600001,0.1 1.5,1.599998 1.5,4.099998 -0.1,5.599998 l -0.30001,0.300003 C 102,100.4 101,100.8 100,100.8 Z m 294.39999,-7.100003 c -0.89999,0 -1.89999,-0.300003 -2.6,-1 L 391.5,92.399994 c -1.60001,-1.400002 -1.79999,-3.900002 -0.29999,-5.599999 1.4,-1.599998 3.9,-1.800003 5.60001,-0.300003 l 0.39999,0.300003 c 1.60001,1.5 1.79999,3.900002 0.29999,5.599999 -1,0.900009 -2,1.300003 -3.10001,1.300003 z M 115.1,87.300003 c -1.1,0 -2.3,-0.5 -3.1,-1.5 -1.4,-1.699997 -1.1,-4.199997 0.6,-5.5 L 113,80 c 1.7,-1.400002 4.2,-1.099998 5.5,0.599998 1.4,1.699997 1.1,4.199997 -0.6,5.5 l -0.4,0.300004 C 116.8,87 116,87.300003 115.1,87.300003 Z M 378.70001,81 c -0.79999,0 -1.6,-0.199997 -2.29999,-0.800003 l -0.39999,-0.300003 c -1.79999,-1.300003 -2.10001,-3.699997 -0.89999,-5.5 1.29998,-1.800003 3.79998,-2.099999 5.5,-0.900002 l 0.39999,0.300003 c 1.79999,1.300003 2.10001,3.800003 0.79999,5.5 C 381.10001,80.400002 379.89999,81 378.70001,81 Z M 131.39999,75.300003 c -1.3,0 -2.5,-0.599998 -3.3,-1.800003 -1.2,-1.800003 -0.7,-4.300003 1.10001,-5.5 l 0.39999,-0.300003 c 1.8,-1.199997 4.3,-0.699997 5.5,1.099998 1.2,1.800003 0.7,4.300003 -1.10001,5.5 l -0.39999,0.300003 c -0.7,0.5 -1.49998,0.700005 -2.2,0.700005 z m 230.4,-5.5 c -0.70001,0 -1.4,-0.199997 -2,-0.599998 l -0.4,-0.300003 C 357.5,67.800003 356.89999,65.400002 358,63.5 c 1.10001,-1.900002 3.5,-2.5 5.39999,-1.400002 l 0.4,0.3 c 1.89999,1.099998 2.5,3.499996 1.39999,5.399997 -0.69998,1.300003 -1.99997,2.000008 -3.39999,2.000008 z M 148.7,64.900002 c -1.4,0 -2.80001,-0.800004 -3.5,-2.099999 -1,-1.900001 -0.30001,-4.299999 1.6,-5.299999 l 0.4,-0.200001 c 1.89999,-1 4.3,-0.299999 5.3,1.599999 1,1.900001 0.3,4.299999 -1.60001,5.300003 L 150.5,64.400002 c -0.5,0.299995 -1.2,0.5 -1.8,0.5 z M 344,60.200001 c -0.60001,0 -1.10001,-0.1 -1.70001,-0.400002 l -0.4,-0.200001 c -2,-0.900001 -2.79998,-3.299999 -1.89999,-5.299999 0.89999,-2 3.29999,-2.799999 5.29999,-1.900001 l 0.39999,0.2 c 2,0.900002 2.79999,3.3 1.9,5.3 C 346.89999,59.400002 345.5,60.200001 344,60.200001 Z M 166.89999,56.099998 c -1.5,0 -3,-0.900001 -3.6,-2.400001 -0.80001,-2 0.1,-4.299999 2.1,-5.200001 l 0.5,-0.200001 c 2,-0.799999 4.30001,0.1 5.2,2.099999 0.8,2 -0.10001,4.299999 -2.10001,5.200001 l -0.39999,0.2 c -0.7,0.200005 -1.2,0.300003 -1.7,0.300003 z m 158.5,-3.799999 c -0.39999,0 -0.89999,-0.1 -1.29998,-0.200001 l -0.5,-0.2 c -2,-0.700001 -3.10001,-3 -2.29999,-5.099999 0.70001,-2 3,-3.099998 5.1,-2.299999 l 0.5,0.200001 c 2,0.700001 3.10001,3 2.4,5.099998 -0.80002,1.5 -2.30002,2.5 -3.90003,2.5 z m -139.5,-3.200001 c -1.69999,0 -3.19999,-1.099998 -3.8,-2.799999 -0.7,-2.099998 0.5,-4.299999 2.60001,-4.900001 l 0.5,-0.1 c 2.1,-0.700001 4.3,0.5 4.89999,2.599999 0.7,2.099998 -0.5,4.299999 -2.60001,4.900001 l -0.5,0.1 c -0.29998,0.2 -0.69998,0.2 -1.09999,0.2 z m 120.20002,-2.799999 c -0.29999,0 -0.70002,0 -1,-0.1 l -0.5,-0.1 c -2.10001,-0.5 -3.4,-2.7 -2.79999,-4.799999 0.5,-2.099998 2.70001,-3.400001 4.79999,-2.799999 l 0.5,0.1 c 2.1,0.599999 3.39999,2.700001 2.79998,4.8 -0.5,1.699996 -2.1,2.899997 -3.79998,2.899997 z M 205.39999,44 c -1.8,0 -3.39999,-1.299999 -3.8,-3.099998 -0.5,-2.099999 0.89999,-4.200001 3,-4.700001 l 0.39999,-0.1 c 2.10001,-0.5 4.30001,0.900002 4.7,3 0.5,2.099999 -0.89999,4.200001 -3,4.700001 l -0.5,0.1 C 206,43.900002 205.7,44 205.39999,44 Z m 80.9,-2 c -0.20001,0 -0.4,0 -0.60001,-0.1 l -0.5,-0.1 c -2.1,-0.299999 -3.6,-2.400001 -3.29999,-4.5 0.4,-2.099998 2.4,-3.599998 4.5,-3.299999 l 0.5,0.1 c 2.10001,0.400002 3.60001,2.400002 3.20002,4.5 -0.20002,2.1 -1.9,3.399999 -3.80002,3.399999 z m -60.9,-1.299999 c -2,0 -3.69999,-1.5 -3.89999,-3.5 C 221.2,35 222.8,33.100002 225,32.799999 l 0.5,-0.1 c 2.2,-0.299999 4.10001,1.299999 4.39999,3.5 0.30001,2.200001 -1.3,4.099998 -3.5,4.400001 l -0.5,0.1 c -0.19999,-0.100003 -0.39999,0 -0.5,0 z m 40.80002,-1 c -0.1,0 -0.20001,0 -0.29999,0 h -0.5 c -2.20001,-0.1 -3.79998,-2 -3.70001,-4.200001 0.10001,-2.200001 2,-3.799999 4.20001,-3.700001 h 0.5 c 2.20002,0.100001 3.79999,2 3.70002,4.200001 -0.10004,2.099998 -1.80005,3.700001 -3.90003,3.700001 z M 245.5,39.299999 c -2.10001,0 -3.89999,-1.700001 -3.89999,-3.900001 -0.10001,-2.200001 1.69999,-4 3.8,-4.100001 h 0.5 c 2.10001,-0.1 4,1.699999 4,3.800001 0.10001,2.200001 -1.7,4 -3.8,4.099999 L 245.5,39.299999 c 0.10001,0 0.10001,0 0,0 z"
             style="fill:#9fa191;fill-opacity:1;fill-rule:nonzero;stroke:none"
             transform="matrix(0.10818265,0,0,0.10818265,397.31424,195.85505)"
             clip-path="url(#clipPath3175)"
             id="path3178" />
        </g>
      </g>
    </g>
  </g>
</svg>
